<?xml version="1.0" standalone="no"?><!DOCTYPE svg PUBLIC "-//W3C//DTD SVG 1.1//EN" "http://www.w3.org/Graphics/SVG/1.1/DTD/svg11.dtd"><svg t="1557233020490" class="icon" style="" viewBox="0 0 1024 1024" version="1.1" xmlns="http://www.w3.org/2000/svg" p-id="6817" xmlns:xlink="http://www.w3.org/1999/xlink" width="512" height="512"><defs><style type="text/css"></style></defs><path d="M512 159.4368c-194.7648 0-352.5632 157.9008-352.5632 352.5632S317.2352 864.5632 512 864.5632 864.5632 706.7648 864.5632 512 706.7648 159.4368 512 159.4368z m234.5984 229.7856L472.576 663.2448c-0.1024 0.1024-0.3072 0.3072-0.4096 0.512-3.9936 3.9936-9.216 5.9392-14.5408 5.9392-5.2224 0-10.5472-1.9456-14.5408-5.9392-0.1024-0.1024-0.3072-0.3072-0.4096-0.512L277.4016 497.9712c-7.9872-7.9872-7.9872-20.992 0-28.9792 7.9872-7.9872 20.992-7.9872 28.9792 0l151.2448 151.2448 259.9936-259.9936c7.9872-7.9872 20.992-7.9872 28.9792 0 7.9872 7.9872 7.9872 20.992 0 28.9792z" p-id="6818" fill="#b2b2b2"></path></svg>