<?xml version="1.0" encoding="UTF-8"?>
<svg width="29px" height="29px" viewBox="0 0 29 29" version="1.1" xmlns="http://www.w3.org/2000/svg" xmlns:xlink="http://www.w3.org/1999/xlink">
    <!-- Generator: Sketch 52.2 (67145) - http://www.bohemiancoding.com/sketch -->
    <title>微信 (1)</title>
    <desc>Created with Sketch.</desc>
    <g id="--" stroke="none" stroke-width="1" fill="none" fill-rule="evenodd">
        <g id="知享呼吸-ppt" transform="translate(-1147.000000, -252.000000)" fill="#FFFFFF" fill-rule="nonzero">
            <g id="微信-(1)" transform="translate(1147.000000, 252.000000)">
                <path d="M14.5000166,29 C6.50421002,29 0,22.4945311 0,14.4997847 C0,6.50550203 6.50421005,0 14.5000166,0 C22.4944317,0 29,6.50546888 29,14.4997847 C29,22.4945642 22.4944317,29 14.5000166,29 Z M14.5000163,0.763157895 C6.92491038,0.763157895 0.763157895,6.92480969 0.763157895,14.5 C0.763157895,22.0751903 6.92491038,28.2368421 14.5000163,28.2368421 C22.0737514,28.2368421 28.2368421,22.0751903 28.2368421,14.5 C28.2368421,6.92480969 22.0737188,0.763157895 14.5000163,0.763157895 Z M17.6584869,12.5766337 C17.880297,12.5766337 18.1002937,12.5941917 18.3157895,12.6197214 C17.7234109,9.75602484 14.7771906,7.63157895 11.4176264,7.63157895 C7.65857752,7.63157895 4.57894737,10.2933926 4.57894737,13.6741071 C4.57894737,15.6222671 5.60461647,17.2250195 7.31550052,18.4690783 L6.63203414,20.6052632 L9.02236932,19.3590853 C9.8767104,19.5346985 10.5619578,19.7156935 11.4176588,19.7156935 C11.6313412,19.7156935 11.8441493,19.7053673 12.0542375,19.6876075 C11.9217019,19.212298 11.8441493,18.7156298 11.8441493,18.2000245 C11.8440846,15.0958647 14.4088564,12.5766337 17.6584869,12.5766337 Z M13.8068118,10.6842105 C14.2226407,10.6842105 14.5,10.9858064 14.5,11.4458645 C14.5,11.903898 14.222667,12.2105263 13.8068118,12.2105263 C13.3906154,12.2105263 12.9736842,11.9038981 12.9736842,11.4458645 C12.9737105,10.9858064 13.3906155,10.6842105 13.8068118,10.6842105 Z M9.2308039,12.2105263 C8.81497497,12.2105263 8.39473684,11.9038981 8.39473684,11.4458645 C8.39473684,10.9858353 8.81494874,10.6842105 9.2308039,10.6842105 C9.64589797,10.6842105 9.92105263,10.9858064 9.92105263,11.4458645 C9.92105263,11.9038981 9.64589797,12.2105263 9.2308039,12.2105263 Z M24.4210526,17.9712222 C24.4210526,15.2174229 21.5485798,12.9736842 18.3219456,12.9736842 C14.9035206,12.9736842 12.2105263,15.2174229 12.2105263,17.9712222 C12.2105263,20.729782 14.9034866,22.9673907 18.3219456,22.9673907 C19.0369687,22.9673907 19.7567535,22.7957836 20.4755859,22.6228397 L22.4469248,23.6578947 L21.9051901,21.9369006 C23.3485009,20.899987 24.4210526,19.5235765 24.4210526,17.9712222 Z M16.7045571,16.7894737 C16.3667843,16.7894737 16.0263158,16.4110662 16.0263158,16.02637 C16.0263158,15.6451796 16.3667843,15.2631579 16.7045571,15.2631579 C17.2170732,15.2631579 17.5526316,15.6452157 17.5526316,16.02637 C17.5526315,16.4111023 17.2170732,16.7894737 16.7045571,16.7894737 Z M19.7536346,16.7894737 C19.4176424,16.7894737 19.0789474,16.4110662 19.0789474,16.02637 C19.0789474,15.6451796 19.4176103,15.2631579 19.7536346,15.2631579 C20.2638974,15.2631579 20.6052632,15.6452157 20.6052632,16.02637 C20.6052953,16.4111023 20.2638974,16.7894737 19.7536346,16.7894737 Z" id="形状"></path>
            </g>
        </g>
    </g>
</svg>