<?xml version="1.0" standalone="no"?><!DOCTYPE svg PUBLIC "-//W3C//DTD SVG 1.1//EN" "http://www.w3.org/Graphics/SVG/1.1/DTD/svg11.dtd"><svg t="1554736208827" class="icon" style="" viewBox="0 0 1024 1024" version="1.1" xmlns="http://www.w3.org/2000/svg" p-id="13138" xmlns:xlink="http://www.w3.org/1999/xlink" width="200" height="200"><defs><style type="text/css"></style></defs><path d="M800 876.8c-6.4-6.4-25.6-6.4-32 0-6.4 6.4-6.4 25.6 0 32l102.4 96c6.4 6.4 12.8 6.4 19.2 6.4 6.4 0 12.8 0 19.2-6.4 6.4-6.4 6.4-25.6 0-32L800 876.8z" p-id="13139"></path><path d="M800 0 224 0C160 0 102.4 57.6 102.4 121.6l0 780.8c0 70.4 57.6 121.6 121.6 121.6l416 0c12.8 0 25.6-12.8 25.6-25.6 0-12.8-12.8-25.6-25.6-25.6L224 972.8c-38.4 0-70.4-32-70.4-70.4L153.6 121.6c0-38.4 32-70.4 70.4-70.4l569.6 0c38.4 0 70.4 32 70.4 70.4l0 627.2c0 12.8 12.8 25.6 25.6 25.6 12.8 0 25.6-12.8 25.6-25.6L915.2 121.6C921.6 57.6 864 0 800 0z" p-id="13140"></path><path d="M281.6 217.6l473.6 0c6.4 0 12.8-6.4 12.8-12.8S761.6 192 755.2 192L281.6 192C275.2 192 268.8 198.4 268.8 204.8S275.2 217.6 281.6 217.6z" p-id="13141"></path><path d="M281.6 377.6l473.6 0c6.4 0 12.8-6.4 12.8-12.8s-6.4-12.8-12.8-12.8L281.6 352c-6.4 0-12.8 6.4-12.8 12.8S275.2 377.6 281.6 377.6z" p-id="13142"></path><path d="M268.8 800c0 6.4 6.4 12.8 12.8 12.8l96 0c38.4 70.4 115.2 115.2 198.4 115.2 128 0 236.8-108.8 236.8-236.8s-108.8-236.8-236.8-236.8c-108.8 0-204.8 76.8-230.4 179.2L281.6 633.6c-6.4 0-12.8 6.4-12.8 12.8s6.4 12.8 12.8 12.8l64 0c0 12.8 0 25.6 0 32 0 32 6.4 70.4 19.2 96L281.6 787.2C275.2 793.6 268.8 793.6 268.8 800zM582.4 876.8c-51.2 0-96-19.2-128-51.2l256 0C678.4 857.6 627.2 876.8 582.4 876.8zM582.4 505.6c76.8 0 147.2 44.8 172.8 115.2L409.6 620.8C435.2 550.4 505.6 505.6 582.4 505.6zM396.8 672 768 672c0 6.4 0 12.8 0 25.6 0 32-6.4 57.6-19.2 83.2L416 780.8c-12.8-25.6-19.2-57.6-19.2-83.2C390.4 684.8 396.8 678.4 396.8 672z" p-id="13143"></path></svg>