<?xml version="1.0" standalone="no"?><!DOCTYPE svg PUBLIC "-//W3C//DTD SVG 1.1//EN" "http://www.w3.org/Graphics/SVG/1.1/DTD/svg11.dtd"><svg t="1557120633609" class="icon" style="" viewBox="0 0 1024 1024" version="1.1" xmlns="http://www.w3.org/2000/svg" p-id="2980" xmlns:xlink="http://www.w3.org/1999/xlink" width="512" height="512"><defs><style type="text/css"></style></defs><path d="M797.1 812.6H221.7c-5.5 0-10-4.5-10-10V130c0-5.5 4.5-10 10-10h575.5c5.5 0 10 4.5 10 10v672.6c-0.1 5.5-4.6 10-10.1 10z" fill="#EEEEEE" p-id="2981"></path><path d="M797.1 832.6H221.7c-16.5 0-30-13.5-30-30V130c0-16.5 13.5-30 30-30h575.5c16.5 0 30 13.5 30 30v673c-0.3 16.3-13.8 29.6-30.1 29.6z m-565.4-40h555.5V140H231.7v652.6z" fill="#FFCDD2" p-id="2982"></path><path d="M703.3 320H322v-64.2h381.3V320z m-127.2 63.6H322v64.2h254.1v-64.2zM513 511.9H322V576h191v-64.1zM596.1 900.2h329.6v24H596.1v-24z m263.6-80.6l-65.9-1.7v-99c-6.8-0.6-13.6-1.2-20.5-1.7-10.8-0.7-21.6 0-32.4 0.4-4.4 0.2-8.8 0.2-13.1 0.1V819l-65.9-1.2c-28.2 0-65.9 24.8-65.9 54v11.4h329.6V865c0-29.2-37.7-45.4-65.9-45.4z" fill="#F44336" p-id="2983"></path><path d="M761.9 655.1m-79.1 0a79.1 79.1 0 1 0 158.2 0 79.1 79.1 0 1 0-158.2 0Z" fill="#F44336" p-id="2984"></path></svg>