<?xml version="1.0" standalone="no"?><!DOCTYPE svg PUBLIC "-//W3C//DTD SVG 1.1//EN" "http://www.w3.org/Graphics/SVG/1.1/DTD/svg11.dtd"><svg t="1557819074656" class="icon" style="" viewBox="0 0 1024 1024" version="1.1" xmlns="http://www.w3.org/2000/svg" p-id="3949" xmlns:xlink="http://www.w3.org/1999/xlink" width="512" height="512"><defs><style type="text/css"></style></defs><path d="M921.6 0H102.4a102.4 102.4 0 0 0-102.4 102.4v819.2a102.4 102.4 0 0 0 102.4 102.4h819.2a102.4 102.4 0 0 0 102.4-102.4V102.4a102.4 102.4 0 0 0-102.4-102.4z m-173.568 526.848l-221.184 221.184a177.152 177.152 0 1 1-250.88-250.88l114.688-114.688a98.816 98.816 0 1 1 140.288 139.776l-115.2 115.2a19.968 19.968 0 0 1-14.336 6.144 21.504 21.504 0 0 1-14.848-6.144 20.48 20.48 0 0 1 0-29.184L501.76 493.056A57.344 57.344 0 0 0 460.8 395.264a56.832 56.832 0 0 0-40.448 14.336L307.2 526.848a132.608 132.608 0 0 0-39.424 95.744A137.216 137.216 0 0 0 307.2 716.8a133.12 133.12 0 0 0 96.256 39.424A137.216 137.216 0 0 0 497.152 716.8L716.8 497.152a132.608 132.608 0 0 0 39.424-95.744A137.216 137.216 0 0 0 716.8 307.2a133.12 133.12 0 0 0-96.256-39.424 137.216 137.216 0 0 0-93.696 39.424 20.992 20.992 0 0 1-29.696 0 20.48 20.48 0 0 1 0-29.184 177.152 177.152 0 1 1 250.88 250.88z" fill="#27A3FF" p-id="3950"></path></svg>