<?xml version="1.0" encoding="utf-8"?>
<!-- Generator: Adobe Illustrator 19.0.0, SVG Export Plug-In . SVG Version: 6.00 Build 0)  -->
<svg version="1.1" id="图层_1" xmlns="http://www.w3.org/2000/svg" xmlns:xlink="http://www.w3.org/1999/xlink" x="0px" y="0px"
	 viewBox="0 0 801.8 801.8" style="enable-background:new 0 0 801.8 801.8;" xml:space="preserve">
<style type="text/css">
	.st0{fill:url(#XMLID_164_);}
	.st1{fill-rule:evenodd;clip-rule:evenodd;fill:#3E3A39;}
	.st2{fill:#353232;}
	.st3{fill:#FFFFFF;}
</style>
<linearGradient id="XMLID_164_" gradientUnits="userSpaceOnUse" x1="112.8228" y1="-25.6753" x2="652.7368" y2="773.8127">
	<stop  offset="0" style="stop-color:#51AEED"/>
	<stop  offset="1" style="stop-color:#449FEA"/>
</linearGradient>
<path id="XMLID_263_" class="st0" d="M617.3,801.8H184.5C82.6,801.8,0,719.2,0,617.3V184.5C0,82.6,82.6,0,184.5,0h432.9
	c101.9,0,184.5,82.6,184.5,184.5v432.9C801.8,719.2,719.2,801.8,617.3,801.8z"/>
<path id="XMLID_216_" class="st3" d="M483.9,292.3c14.1,6.7,31,0.7,37.7-13.4l26-54.6c6.7-14.1,0.7-31-13.4-37.7
	c-14.1-6.7-31-0.7-37.7,13.4l-26,54.6C463.8,268.7,469.8,285.6,483.9,292.3z"/>
<path id="XMLID_215_" class="st3" d="M571,466.2c-10.6-9.5-26.8-9.3-36.8,0.4c-37.4,36.3-88.5,54.8-140.3,50.6
	c-25.8-2.1-50.2-10.1-72.5-22.6c3.2-6.3,6.4-12.6,9.8-18.8c16.4-30,4.6-67.5-26-82.8l-58.7-29.2c52.7-88.5,121-164.9,203.6-227.8
	c-19.7-25.4-56.8-29-81-7.8c-12.9,11.3-24.1,21.2-26.3,23.4c-48.8,46.4-93.3,98.9-129.7,155.6c-15.3,23.8-28.9,53.4-15.5,81.2
	c11.2,23.1,34.9,32.1,56.2,43.3c2.2,1.2,28,12.4,27.9,14.1l-1.2,2.3c-28.9,52.9-50.6,108.9-65,167c-7.8,31.4,10.7,62.6,42.7,67.7
	c7.5-47.6,21.4-93.8,39.9-138.2c28.3,15.2,59.3,24.5,91.3,27.1c67.4,5.5,134-18.6,182.8-66c5.3-5.1,8.1-12,7.9-19.5
	C580.1,478.6,576.7,471.3,571,466.2z"/>
</svg>
