<svg id="图层_1" data-name="图层 1" xmlns="http://www.w3.org/2000/svg" xmlns:xlink="http://www.w3.org/1999/xlink" viewBox="0 0 261.23 83.59"><defs><style>.cls-1{fill:#64a531;}.cls-2{fill:#fff;}.cls-3{fill:url(#linear-gradient);}.cls-4{fill:url(#linear-gradient-2);}.cls-5{fill:url(#linear-gradient-3);}.cls-6{fill:url(#linear-gradient-4);}.cls-7{fill:url(#linear-gradient-5);}</style><linearGradient id="linear-gradient" x1="80.93" y1="128.5" x2="59.24" y2="89.31" gradientUnits="userSpaceOnUse"><stop offset="0" stop-color="#ffe329"/><stop offset="0.43" stop-color="#f39800"/></linearGradient><linearGradient id="linear-gradient-2" x1="85.92" y1="135.81" x2="90.75" y2="135.81" gradientUnits="userSpaceOnUse"><stop offset="0" stop-color="#8fc31f"/><stop offset="1" stop-color="#0099d9"/></linearGradient><linearGradient id="linear-gradient-3" x1="44.56" y1="121.21" x2="132" y2="121.21" xlink:href="#linear-gradient-2"/><linearGradient id="linear-gradient-4" x1="84.97" y1="138.12" x2="112.23" y2="129.03" gradientUnits="userSpaceOnUse"><stop offset="0" stop-color="#54c3f1"/><stop offset="0.85" stop-color="#008ccf"/></linearGradient><linearGradient id="linear-gradient-5" x1="84.02" y1="128.97" x2="93.4" y2="98.41" gradientUnits="userSpaceOnUse"><stop offset="0.24" stop-color="#9dc93a"/><stop offset="1" stop-color="#41b25d"/></linearGradient></defs><title>logo+中文</title><path class="cls-1" d="M146.12,110.68v-3.62h7.82v3.62Zm0,13.47v-3.63h7.82v3.63Zm0,15.11v-3.61h7.82v3.61Zm9.95-16V119.5q3.52-.72,8-1.8l-1-.73a32.73,32.73,0,0,1-3.39-2.55c-.52-.48-1.21-1.2-2.06-2.15l5.1,0a26.56,26.56,0,0,0,3.47,2.47,23.41,23.41,0,0,0,3.33,1.51,24,24,0,0,0,5.62-3.06c1.24-1,1.86-1.72,1.86-2.27s-.36-.61-1.09-.61H156.33v-3.63h17.28a41.59,41.59,0,0,1,5.47.18c1.77.44,2.65,1.45,2.65,3q0,3.78-6.35,7.94.51.14,6.94,1.7v3.73q-4.41-1.08-12.1-3.34Q165.3,121.3,156.07,123.23Zm0,13.89v-3.8h11.39v-4.13H156.58v-3.75h10.88v-2.88h3.63v2.88H182v3.75H171.09v4.13h11.36v3.8H171.09v2.65h-3.63v-2.65Z" transform="translate(-44.56 -79.41)"/><path class="cls-1" d="M187.28,117.19v-3.41a8.06,8.06,0,0,0,2.64-.37c.39-.24,1-1.4,1.94-3.47a9.37,9.37,0,0,1,1.49-2.59,3.53,3.53,0,0,1,2.61-.9h6.66a3.16,3.16,0,0,1,2.32.86,8.71,8.71,0,0,1,1.57,2.65c.84,2,1.47,3.18,1.89,3.43a7.32,7.32,0,0,0,2.67.39v3.41c-2.38,0-3.95-.3-4.72-.84a5.64,5.64,0,0,1-1.47-1.93c-.13-.23-.58-1.15-1.36-2.76a5.56,5.56,0,0,0-.68-1.1,2,2,0,0,0-1.39-.41h-4.78a1.56,1.56,0,0,0-1.34.55,24.67,24.67,0,0,0-1.39,2.69,7.87,7.87,0,0,1-2,2.9C191.18,116.85,189.62,117.15,187.28,117.19Zm10.07,14.41v-3.14h7.39c1.36,0,2-.59,2-1.78v-4.12c0-.89-.48-1.33-1.45-1.33H194.12a2.28,2.28,0,0,0-1.61.41,2.08,2.08,0,0,0-.51,1.53V133.5c0,1.84.78,2.76,2.33,2.76H210.6v3.33H193.53a5.21,5.21,0,0,1-3.86-1.55,4.61,4.61,0,0,1-1.36-3.4V121.93a4.41,4.41,0,0,1,1.18-3.19,4.15,4.15,0,0,1,3.1-1.06h13.56a4.27,4.27,0,0,1,3.16,1.19,3.33,3.33,0,0,1,.94,2.43v6.63a3.24,3.24,0,0,1-1,2.27,5.16,5.16,0,0,1-3.88,1.4Zm15.76,8.11v-3.66h4.43a2.12,2.12,0,0,0,1.6-.61,1.92,1.92,0,0,0,.55-1.39v-27.6h3.69v28.19a4.91,4.91,0,0,1-1.47,3.64,5.29,5.29,0,0,1-3.86,1.43Zm0-5.78v-26h3.62v26Z" transform="translate(-44.56 -79.41)"/><path class="cls-1" d="M228.36,139.77v-3.65a15.52,15.52,0,0,0,5.82-1.39,16.52,16.52,0,0,0,7.55-6.13,21.4,21.4,0,0,0,2.57-6.43H228.36v-3.69h16.31v-7.74H229.05v-3.68h35v3.68H248.41v7.74h16.23v3.69H248.77a14.77,14.77,0,0,0,1.72,4.86,17.18,17.18,0,0,0,6.65,6.86,19.31,19.31,0,0,0,7.19,2.17h.35v3.71a27.58,27.58,0,0,1-6.13-1.2,23.59,23.59,0,0,1-6.16-3.51,16.11,16.11,0,0,1-4-4.31,30.41,30.41,0,0,1-1.73-3.19,25.53,25.53,0,0,1-2.9,4.76,21.92,21.92,0,0,1-4.86,4.18,18.58,18.58,0,0,1-6.68,2.78C231.3,139.45,230,139.61,228.36,139.77Z" transform="translate(-44.56 -79.41)"/><path class="cls-1" d="M269.51,139.85v-3.67a1.37,1.37,0,0,0,1.19-.47,3.76,3.76,0,0,0,.53-2.25V114.4a5.19,5.19,0,0,1,1.44-4,4.13,4.13,0,0,1,1.56-1,16.91,16.91,0,0,1,4.47-.41h11l-.93-2.59h3.71l.94,2.59h6.93v-2.59H304V109h1.79v3.68h-11l5.08,13.78a6,6,0,0,0,1.33-1.45,9.37,9.37,0,0,0,.76-3h3.81a14.51,14.51,0,0,1-1.32,4.86,10.36,10.36,0,0,1-3.15,3.39,14.85,14.85,0,0,0,2.43,4.67,5.16,5.16,0,0,0,2,1.23v3.67a7.63,7.63,0,0,1-4.12-1.71,9.08,9.08,0,0,1-2.06-2.52A31.67,31.67,0,0,1,298,132l-7.36,3.84V131.6l6.07-3.2-5.66-15.7H277.33a2.48,2.48,0,0,0-1.87.61,2.88,2.88,0,0,0-.62,2v1.78h9.31a3.52,3.52,0,0,1,2.62.94,3.32,3.32,0,0,1,1,2.47v14.19a4,4,0,0,1-.92,2.86,3.56,3.56,0,0,1-2.68,1H280v-3.74h2.75a1.37,1.37,0,0,0,1-.28,1.59,1.59,0,0,0,.37-1.15V122.32a1.72,1.72,0,0,0-.37-1.27,1.69,1.69,0,0,0-1.12-.29h-7.82v12.15c0,2.86-.78,4.87-2.33,6A5.14,5.14,0,0,1,269.51,139.85Z" transform="translate(-44.56 -79.41)"/><path class="cls-2" d="M99.57,103.56a7.39,7.39,0,0,0-.67-.52h0c.4.36.62.6.62.6Z" transform="translate(-44.56 -79.41)"/><path class="cls-2" d="M99.57,103.56a7.39,7.39,0,0,0-.67-.52h0c.4.36.62.6.62.6Z" transform="translate(-44.56 -79.41)"/><path class="cls-3" d="M72.84,114.79a71.69,71.69,0,0,0,11,21.08c1-5.91,3.86-27.9-5.61-36.29-2.42-2.19-11.53-9-18.83,4.62C51.34,119.34,81,134.62,83.84,136l0-.15S72.52,122.54,72.84,114.79Z" transform="translate(-44.56 -79.41)"/><path class="cls-4" d="M90.49,136.08a2.41,2.41,0,0,0-1.59-1.7l.1.1-3.08,2.76H86a34.69,34.69,0,0,0,4.76-.35C90.66,136.61,90.57,136.37,90.49,136.08Z" transform="translate(-44.56 -79.41)"/><path class="cls-5" d="M88.28,79.41a43.77,43.77,0,0,0-43.72,43.73C44.56,146.24,63,163,88.28,163a2.45,2.45,0,1,0,0-4.89c-22.5,0-38.83-14.71-38.83-35a38.83,38.83,0,1,1,77.66,0c0,14.76-9.59,22.59-19.09,23.8-6.31.8-14.44-1.34-17.21-9.83a38.74,38.74,0,0,1-4.82.13h-.07l-.14.13c2.63,10,11.8,15.83,22.86,14.42,11.25-1.43,23.36-11,23.36-28.65A43.77,43.77,0,0,0,88.28,79.41Z" transform="translate(-44.56 -79.41)"/><path class="cls-6" d="M108.18,125.67c-8.46-6.66-21.16,10-22.34,11.57H86c1.24,0,10.47-.09,16.16-4.74-.14.2-3.7,5.15-16.16,4.74h-.15c3.4,1.22,16.84,5.54,23.12.56C110.58,136.56,115.82,131.68,108.18,125.67Z" transform="translate(-44.56 -79.41)"/><path class="cls-7" d="M101,97.73c-13-12.77-20.58,1.18-21.2,2.37.14.11.28.25.45.4h0l.17.18h0l.21.23a14,14,0,0,1,1.37,1.67h0l.14.19h0c.16.23.32.48.49.74h0l.07.11h0c.23.37.45.77.68,1.19l0,.09c1.6,3.06,3.06,7.67,3.22,14.36,1.24-5.51,3.61-13.51,7.39-16.6a70.21,70.21,0,0,0-7.36,17.59c0,.19,0,.38,0,.57,0,1.24-.08,2.56-.18,3.94l0,.39c-.08,1-.18,1.94-.3,3,0,.44-.13.91-.2,1.36-.11.78-.22,1.56-.36,2.38-.24,1.34-.51,2.73-.83,4.17a1.23,1.23,0,0,0,.18.09S112.36,108.87,101,97.73Z" transform="translate(-44.56 -79.41)"/></svg>