<svg id="图层_1" data-name="图层 1" xmlns="http://www.w3.org/2000/svg" xmlns:xlink="http://www.w3.org/1999/xlink" viewBox="0 0 143.44 137.13"><defs><style>.cls-1{fill:#fff;}.cls-2{fill:url(#linear-gradient);}.cls-3{fill:url(#linear-gradient-2);}.cls-4{fill:url(#linear-gradient-3);}.cls-5{fill:url(#linear-gradient-4);}.cls-6{fill:url(#linear-gradient-5);}</style><linearGradient id="linear-gradient" x1="160.34" y1="130.81" x2="124.76" y2="66.53" gradientUnits="userSpaceOnUse"><stop offset="0" stop-color="#ffe329"/><stop offset="0.43" stop-color="#f39800"/></linearGradient><linearGradient id="linear-gradient-2" x1="168.52" y1="142.81" x2="176.44" y2="142.81" gradientUnits="userSpaceOnUse"><stop offset="0" stop-color="#8fc31f"/><stop offset="1" stop-color="#0099d9"/></linearGradient><linearGradient id="linear-gradient-3" x1="100.67" y1="118.86" x2="244.12" y2="118.86" xlink:href="#linear-gradient-2"/><linearGradient id="linear-gradient-4" x1="166.96" y1="146.59" x2="211.69" y2="131.68" gradientUnits="userSpaceOnUse"><stop offset="0" stop-color="#54c3f1"/><stop offset="0.85" stop-color="#008ccf"/></linearGradient><linearGradient id="linear-gradient-5" x1="165.41" y1="131.59" x2="180.79" y2="81.45" gradientUnits="userSpaceOnUse"><stop offset="0.24" stop-color="#9dc93a"/><stop offset="1" stop-color="#41b25d"/></linearGradient></defs><title>logo</title><path class="cls-1" d="M190.91,89.9a9.62,9.62,0,0,0-1.09-.84h0c.65.59,1,1,1,1Z" transform="translate(-100.67 -50.3)"/><path class="cls-1" d="M190.91,89.9a9.62,9.62,0,0,0-1.09-.84h0c.65.59,1,1,1,1Z" transform="translate(-100.67 -50.3)"/><path class="cls-2" d="M147.06,108.32a117.83,117.83,0,0,0,18.09,34.58c1.61-9.7,6.35-45.77-9.2-59.52C152,79.78,137,68.54,125.07,91c-13.27,24.84,35.4,49.9,40,52.21a2.34,2.34,0,0,0,0-.26S146.54,121,147.06,108.32Z" transform="translate(-100.67 -50.3)"/><path class="cls-3" d="M176,143.25a4,4,0,0,0-2.62-2.79l.18.17-5.06,4.52h.12a55,55,0,0,0,7.8-.58C176.3,144.13,176.15,143.72,176,143.25Z" transform="translate(-100.67 -50.3)"/><path class="cls-4" d="M172.4,50.3A71.8,71.8,0,0,0,100.67,122c0,37.9,30.17,65.4,71.73,65.4a4,4,0,0,0,0-8c-36.92,0-63.7-24.13-63.7-57.38a63.7,63.7,0,1,1,127.39,0c0,24.21-15.72,37.06-31.31,39.05-10.35,1.31-23.68-2.21-28.23-16.14a62.06,62.06,0,0,1-7.91.22h-.12l-.23.21c4.32,16.46,19.37,26,37.51,23.67,18.45-2.36,38.32-18.07,38.32-47A71.8,71.8,0,0,0,172.4,50.3Z" transform="translate(-100.67 -50.3)"/><path class="cls-5" d="M205,126.17c-13.88-10.93-34.71,16.38-36.65,19h.25c2,0,17.17-.15,26.51-7.78-.24.33-6.08,8.45-26.51,7.78h-.25c5.58,2,27.63,9.09,37.93.92C209,144,217.57,136,205,126.17Z" transform="translate(-100.67 -50.3)"/><path class="cls-6" d="M193.33,80.35c-21.29-21-33.77,1.92-34.78,3.87.22.18.46.41.73.67a0,0,0,0,1,0,0l.29.29h0c.12.11.24.24.36.37a25.94,25.94,0,0,1,2.23,2.73h0l.22.32h0c.26.39.53.8.8,1.23a0,0,0,0,0,0,0l.1.17a0,0,0,0,0,0,0q.56.9,1.11,1.95l.07.14c2.63,5,5,12.59,5.28,23.57,2-9,5.92-22.18,12.12-27.24a115.22,115.22,0,0,0-12.06,28.86c0,.3,0,.62,0,.93,0,2-.12,4.2-.29,6.46,0,.21,0,.43,0,.63-.13,1.58-.29,3.19-.49,4.88-.09.72-.22,1.49-.33,2.23-.19,1.29-.36,2.56-.59,3.91-.39,2.19-.84,4.47-1.37,6.85l.3.14S211.89,98.61,193.33,80.35Z" transform="translate(-100.67 -50.3)"/></svg>