<?xml version="1.0" standalone="no"?><!DOCTYPE svg PUBLIC "-//W3C//DTD SVG 1.1//EN" "http://www.w3.org/Graphics/SVG/1.1/DTD/svg11.dtd"><svg t="1554735639601" class="icon" style="" viewBox="0 0 1024 1024" version="1.1" xmlns="http://www.w3.org/2000/svg" p-id="11691" xmlns:xlink="http://www.w3.org/1999/xlink" width="200" height="200"><defs><style type="text/css"></style></defs><path d="M480 336.128h304L432.624 16H432v272.016a48.048 48.048 0 0 0 48 48.112zM576 848a96 96 0 0 1 96-96c5.488 0 10.768 0.736 16 1.632V624a96 96 0 0 1 96-96v-143.776H480c-53.024 0-96-43.072-96-96.208V16H128a48 48 0 0 0-48 48v832a48 48 0 0 0 48 48h504.256l-28.128-28.112A95.712 95.712 0 0 1 576 848z m320-48a47.84 47.84 0 0 0-33.936 14.064L832 844.112V624a48 48 0 1 0-96 0v220.112l-30.064-30.064a48 48 0 0 0-67.872 67.888l112 112c8.688 8.688 20.688 14.064 33.936 14.064s25.248-5.376 33.936-14.064l112-112A48 48 0 0 0 896 800z" fill="" p-id="11692"></path></svg>