<?xml version="1.0" standalone="no"?><!DOCTYPE svg PUBLIC "-//W3C//DTD SVG 1.1//EN" "http://www.w3.org/Graphics/SVG/1.1/DTD/svg11.dtd"><svg t="1554734236097" class="icon" style="" viewBox="0 0 1024 1024" version="1.1" xmlns="http://www.w3.org/2000/svg" p-id="4709" xmlns:xlink="http://www.w3.org/1999/xlink" width="200" height="200"><defs><style type="text/css"></style></defs><path d="M978.679467 3.164729H48.494933c-24.995271 0-45.328498 20.33152-45.328497 45.321671v930.190222c0 24.990151 20.333796 45.323378 45.328497 45.323378h930.184534c24.989582 0 45.320533-20.333227 45.320533-45.323378V48.4864c0-24.990151-20.330951-45.321671-45.320533-45.321671zM48.494933 39.011556h930.184534c5.223538 0 9.473707 4.251307 9.473706 9.474844v111.235982H39.013262V48.4864c0-5.223538 4.253582-9.474844 9.481671-9.474844z m930.184534 949.141617H48.494933c-5.228089 0-9.481671-4.250738-9.481671-9.476551V195.569209h949.139911V978.676622c0 5.226382-4.250169 9.476551-9.473706 9.476551z" p-id="4710"></path><path d="M863.959609 654.750151H189.979307c-26.825387 0-48.649671 21.824284-48.649671 48.649671v179.234702c0 26.824249 21.824284 48.649102 48.649671 48.649103h673.979733c26.825387 0 48.65024-21.824284 48.65024-48.649103v-179.234702c0-26.825387-21.824284-48.649671-48.649671-48.649671z m12.802844 227.883805c0 7.055929-5.743502 12.802276-12.802844 12.802275H189.979307c-7.059342 0-12.802276-5.746347-12.802276-12.802275v-179.234703c0-7.061049 5.743502-12.802844 12.802276-12.802844h673.979733c7.059342 0 12.802844 5.741796 12.802844 12.802844v179.234703zM189.979307 519.899591h173.832533c26.824818 0 48.649671-21.825422 48.649671-48.650809V297.416249c0-26.825387-21.824284-48.649102-48.649671-48.649102H189.979307c-26.825387 0-48.649671 21.823716-48.649671 48.649102v173.832533c0.000569 26.825387 21.824284 48.650809 48.649671 48.650809z m-12.802276-222.483342c0-7.058773 5.743502-12.802276 12.802276-12.802276h173.832533c7.058773 0 12.802844 5.743502 12.802844 12.802276v173.832533c0 7.058773-5.744071 12.802844-12.802844 12.802845H189.979307c-7.059342 0-12.802276-5.744071-12.802276-12.802845V297.416249zM894.685298 566.838613H159.253618c-9.899236 0-17.923413 8.025884-17.923414 17.922845 0 9.90208 8.024178 17.923982 17.923414 17.923982h735.43168c9.899236 0 17.923982-8.021902 17.923982-17.923982 0-9.896391-8.024178-17.922844-17.923982-17.922845zM894.685298 473.381547H488.424107c-9.899804 0-17.923982 8.024178-17.923983 17.923982 0 9.899236 8.024178 17.922844 17.923983 17.922844h406.26176c9.899236 0 17.923982-8.023609 17.923982-17.922844-0.000569-9.899236-8.024747-17.923982-17.924551-17.923982zM894.685298 365.841636H488.424107c-9.899804 0-17.923982 8.024178-17.923983 17.923413s8.024178 17.922844 17.923983 17.922844h406.26176c9.899236 0 17.923982-8.023609 17.923982-17.922844-0.000569-9.899236-8.024747-17.923413-17.924551-17.923413zM894.685298 258.300587H488.424107c-9.899804 0-17.923982 8.024178-17.923983 17.923982 0 9.899236 8.024178 17.922844 17.923983 17.922844h406.26176c9.899236 0 17.923982-8.023609 17.923982-17.922844-0.000569-9.899236-8.024747-17.923982-17.924551-17.923982z" p-id="4711"></path><path d="M116.572729 97.630436m-28.805689 0a28.805689 28.805689 0 1 0 57.611378 0 28.805689 28.805689 0 1 0-57.611378 0Z" p-id="4712"></path><path d="M207.470364 97.630436m-28.805688 0a28.805689 28.805689 0 1 0 57.611377 0 28.805689 28.805689 0 1 0-57.611377 0Z" p-id="4713"></path><path d="M298.367431 97.630436m-28.805689 0a28.805689 28.805689 0 1 0 57.611378 0 28.805689 28.805689 0 1 0-57.611378 0Z" p-id="4714"></path></svg>