<?xml version="1.0" standalone="no"?><!DOCTYPE svg PUBLIC "-//W3C//DTD SVG 1.1//EN" "http://www.w3.org/Graphics/SVG/1.1/DTD/svg11.dtd"><svg t="1553590965680" class="icon" style="" viewBox="0 0 1024 1024" version="1.1" xmlns="http://www.w3.org/2000/svg" p-id="12887" xmlns:xlink="http://www.w3.org/1999/xlink" width="200" height="200"><defs><style type="text/css"></style></defs><path d="M154.971429 992.571429c-7.542857 0-14.742857-3.771429-18.971429-10.171429-5.142857-7.657143-5.142857-17.6-0.114286-25.257143l58.4-88.914286c9.257143-14.514286 5.142857-34.285714-9.485714-45.028571C68.685714 737.714286 2.057143 612.114286 2.057143 478.857143c0-61.028571 13.6-120.114286 40.571428-175.771429 25.828571-53.485714 62.857143-101.485714 109.828572-142.628571 46.857143-40.914286 101.257143-73.142857 161.828571-95.542857 62.514286-23.2 129.028571-34.857143 197.371429-34.857143s134.857143 11.771429 197.371428 34.857143c60.571429 22.4 115.085714 54.514286 161.828572 95.542857 47.085714 41.142857 84 89.142857 109.828571 142.628571 26.857143 55.657143 40.571429 114.742857 40.571429 175.771429 0 52.685714-10.285714 104.342857-30.514286 153.485714-19.542857 47.314286-47.885714 91.2-84.114286 130.285714-72.342857 78.057143-173.257143 132.914286-284.342857 154.514286-19.542857 3.771429-39.657143 6.628571-59.542857 8.342857-12.571429 1.142857-23.657143-8.228571-24.8-20.8s8.228571-23.657143 20.8-24.8c18.4-1.6 36.8-4.228571 54.857143-7.657143 101.6-19.771429 193.714286-69.714286 259.542857-140.685714 32.571429-35.085714 57.942857-74.4 75.428572-116.685714 17.942857-43.542857 27.085714-89.371429 27.085714-136.114286 0-107.085714-47.885714-208-134.742857-284-42.628571-37.257143-92.228571-66.628571-147.657143-87.085714-57.485714-21.257143-118.514286-32.114286-181.6-32.114286-62.971429 0-124.114286 10.742857-181.6 32.114286-55.314286 20.457143-105.028571 49.828571-147.657143 87.085714C95.542857 270.857143 47.771429 371.771429 47.771429 478.857143c0 118.628571 59.885714 230.742857 164.228571 307.657143 34.057143 25.028571 43.085714 71.885714 20.685714 106.628571 0 0-0.114286 0.114286-0.114285 0.228572l-28.914286 44L368.571429 906.285714c0.114286 0 0.228571 0 0.342857-0.114285l73.142857-12.457143c12.457143-2.171429 24.228571 6.285714 26.4 18.742857 2.171429 12.457143-6.285714 24.228571-18.742857 26.4l-73.028572 12.457143-217.6 41.028571c-1.371429 0.114286-2.742857 0.228571-4.114285 0.228572z" p-id="12888"></path><path d="M299.885714 456m-26.971428 0a26.971429 26.971429 0 1 0 53.942857 0 26.971429 26.971429 0 1 0-53.942857 0Z" p-id="12889"></path><path d="M515.885714 456.457143m-26.971428 0a26.971429 26.971429 0 1 0 53.942857 0 26.971429 26.971429 0 1 0-53.942857 0Z" p-id="12890"></path><path d="M732 456m-26.971429 0a26.971429 26.971429 0 1 0 53.942858 0 26.971429 26.971429 0 1 0-53.942858 0Z" p-id="12891"></path></svg>