<?xml version="1.0" standalone="no"?><!DOCTYPE svg PUBLIC "-//W3C//DTD SVG 1.1//EN" "http://www.w3.org/Graphics/SVG/1.1/DTD/svg11.dtd"><svg t="1557061127418" class="icon" style="" viewBox="0 0 1024 1024" version="1.1" xmlns="http://www.w3.org/2000/svg" p-id="922" xmlns:xlink="http://www.w3.org/1999/xlink" width="512" height="512"><defs><style type="text/css"></style></defs><path d="M140.8 64h742.4a76.8 76.8 0 0 1 76.8 76.8v742.4a76.8 76.8 0 0 1-76.8 76.8H140.8a76.8 76.8 0 0 1-76.8-76.8V140.8a76.8 76.8 0 0 1 76.8-76.8z m166.4 166.4a76.8 76.8 0 0 0-76.8 76.8v409.6a76.8 76.8 0 0 0 76.8 76.8h409.6a76.8 76.8 0 0 0 76.8-76.8V307.2a76.8 76.8 0 0 0-76.8-76.8H307.2z" fill="#1989FA" opacity=".3" p-id="923"></path><path d="M332.8 332.8m76.8 0l204.8 0q76.8 0 76.8 76.8l0 204.8q0 76.8-76.8 76.8l-204.8 0q-76.8 0-76.8-76.8l0-204.8q0-76.8 76.8-76.8Z" fill="#1989FA" p-id="924"></path><path d="M217.6 25.6a25.6 25.6 0 0 1 25.6 25.6v25.6a25.6 25.6 0 1 1-51.2 0V51.2a25.6 25.6 0 0 1 25.6-25.6z m268.8 0a25.6 25.6 0 0 1 25.6 25.6v25.6a25.6 25.6 0 1 1-51.2 0V51.2a25.6 25.6 0 0 1 25.6-25.6z m307.2 0a25.6 25.6 0 0 1 25.6 25.6v25.6a25.6 25.6 0 1 1-51.2 0V51.2a25.6 25.6 0 0 1 25.6-25.6zM217.6 921.6a25.6 25.6 0 0 1 25.6 25.6v25.6a25.6 25.6 0 1 1-51.2 0v-25.6a25.6 25.6 0 0 1 25.6-25.6z m268.8 0a25.6 25.6 0 0 1 25.6 25.6v25.6a25.6 25.6 0 1 1-51.2 0v-25.6a25.6 25.6 0 0 1 25.6-25.6z m307.2 0a25.6 25.6 0 0 1 25.6 25.6v25.6a25.6 25.6 0 1 1-51.2 0v-25.6a25.6 25.6 0 0 1 25.6-25.6zM998.4 230.4a25.6 25.6 0 0 1-25.6 25.6h-25.6a25.6 25.6 0 1 1 0-51.2h25.6a25.6 25.6 0 0 1 25.6 25.6z m0 268.8a25.6 25.6 0 0 1-25.6 25.6h-25.6a25.6 25.6 0 1 1 0-51.2h25.6a25.6 25.6 0 0 1 25.6 25.6z m0 307.2a25.6 25.6 0 0 1-25.6 25.6h-25.6a25.6 25.6 0 1 1 0-51.2h25.6a25.6 25.6 0 0 1 25.6 25.6zM102.4 230.4a25.6 25.6 0 0 1-25.6 25.6H51.2a25.6 25.6 0 1 1 0-51.2h25.6a25.6 25.6 0 0 1 25.6 25.6z m0 268.8a25.6 25.6 0 0 1-25.6 25.6H51.2a25.6 25.6 0 1 1 0-51.2h25.6a25.6 25.6 0 0 1 25.6 25.6z m0 307.2a25.6 25.6 0 0 1-25.6 25.6H51.2a25.6 25.6 0 1 1 0-51.2h25.6a25.6 25.6 0 0 1 25.6 25.6z" fill="#1989FA" p-id="925"></path></svg>