<?xml version="1.0" standalone="no"?><!DOCTYPE svg PUBLIC "-//W3C//DTD SVG 1.1//EN" "http://www.w3.org/Graphics/SVG/1.1/DTD/svg11.dtd"><svg t="1557901539722" class="icon" style="" viewBox="0 0 1039 1024" version="1.1" xmlns="http://www.w3.org/2000/svg" p-id="2758" xmlns:xlink="http://www.w3.org/1999/xlink" width="519.5" height="512"><defs><style type="text/css"></style></defs><path d="M808.015066 752.090395h-539.962335c-84.851224 0-154.274953-69.423729-154.274953-154.274952v-308.549906c0-84.851224 69.423729-154.274953 154.274953-154.274953h539.962335c84.851224 0 154.274953 69.423729 154.274953 154.274953v308.549906c0 84.851224-69.423729 154.274953-154.274953 154.274952z m-539.962335-539.962335c-42.425612 0-77.137476 34.711864-77.137477 77.137477v308.549906c0 42.425612 34.711864 77.137476 77.137477 77.137476h539.962335c42.425612 0 77.137476-34.711864 77.137476-77.137476v-308.549906c0-42.425612-34.711864-77.137476-77.137476-77.137477h-539.962335z" fill="#388CEB" p-id="2759"></path><path d="M499.46516 617.099812c-23.141243 0-44.354049-5.785311-61.709981-17.355933-40.497175-26.998117-59.781544-80.99435-53.996234-161.9887 3.856874-82.922787 26.998117-133.062147 71.352166-156.20339 44.354049-23.141243 100.278719-11.570621 171.630885 32.783428s104.135593 90.636535 102.207157 140.775894c-1.928437 50.13936-40.497175 90.636535-115.706215 129.205273-42.425612 23.141243-80.99435 32.783427-113.777778 32.783428z m5.785311-269.981168c-7.713748 0-11.570621 1.928437-13.499059 1.928437-17.355932 7.713748-26.998117 42.425612-30.85499 90.636535-3.856874 71.352166 13.499058 88.708098 19.284369 94.493408 7.713748 5.785311 32.783427 13.499058 98.350282-19.284369 67.495292-32.783427 73.280603-57.853107 73.280603-63.638418 0-5.785311-3.856874-30.854991-65.566855-71.352165-40.497175-25.06968-65.566855-32.783427-80.99435-32.783428z" fill="#E78E00" p-id="2760"></path><path d="M750.161959 906.365348h-424.256121c-21.212806 0-38.568738-17.355932-38.568738-38.568738s17.355932-38.568738 38.568738-38.568738h424.256121c21.212806 0 38.568738 17.355932 38.568738 38.568738s-17.355932 38.568738-38.568738 38.568738z" fill="#388CEB" p-id="2761"></path></svg>