<?xml version="1.0" standalone="no"?><!DOCTYPE svg PUBLIC "-//W3C//DTD SVG 1.1//EN" "http://www.w3.org/Graphics/SVG/1.1/DTD/svg11.dtd"><svg t="1557120651557" class="icon" style="" viewBox="0 0 1024 1024" version="1.1" xmlns="http://www.w3.org/2000/svg" p-id="3825" xmlns:xlink="http://www.w3.org/1999/xlink" width="512" height="512"><defs><style type="text/css"></style></defs><path d="M83.781818 76.8H232.727273v558.545455H83.781818zM437.527273 72.145455h148.945454v558.545454h-148.945454zM786.618182 76.8h148.945454v558.545455h-148.945454z" fill="#FF7F00" p-id="3826"></path><path d="M251.345455 18.618182H72.145455C41.890909 18.618182 16.290909 44.218182 16.290909 74.472727v875.054546c0 30.254545 25.6 55.854545 55.854546 55.854545h176.872727c30.254545 0 55.854545-25.6 55.854545-55.854545V74.472727c2.327273-30.254545-23.272727-55.854545-53.527272-55.854545zM160.581818 919.272727c-27.927273 0-53.527273-23.272727-53.527273-53.527272s23.272727-53.527273 53.527273-53.527273c27.927273 0 53.527273 23.272727 53.527273 53.527273s-23.272727 53.527273-53.527273 53.527272z m53.527273-356.072727H109.381818V114.036364h104.727273v449.163636zM621.381818 18.618182h-221.090909c-30.254545 0-55.854545 25.6-55.854545 55.854545v875.054546c0 30.254545 25.6 55.854545 55.854545 55.854545h221.090909c30.254545 0 55.854545-25.6 55.854546-55.854545V74.472727c0-30.254545-25.6-55.854545-55.854546-55.854545zM512 935.563636c-37.236364 0-69.818182-30.254545-69.818182-69.818181s30.254545-69.818182 69.818182-69.818182 69.818182 30.254545 69.818182 69.818182-32.581818 69.818182-69.818182 69.818181z m69.818182-372.363636h-139.636364V116.363636h139.636364v446.836364zM951.854545 18.618182h-176.872727c-30.254545 0-55.854545 25.6-55.854545 55.854545v875.054546c0 30.254545 25.6 55.854545 55.854545 55.854545h176.872727c30.254545 0 55.854545-25.6 55.854546-55.854545V74.472727c0-30.254545-25.6-55.854545-55.854546-55.854545zM861.090909 919.272727c-27.927273 0-53.527273-23.272727-53.527273-53.527272s23.272727-53.527273 53.527273-53.527273c27.927273 0 53.527273 23.272727 53.527273 53.527273s-23.272727 53.527273-53.527273 53.527272z m53.527273-356.072727h-104.727273V114.036364h104.727273v449.163636z" fill="#FFD243" p-id="3827"></path><path d="M251.345455 2.327273H72.145455C32.581818 2.327273 0 34.909091 0 74.472727v875.054546c0 39.563636 32.581818 72.145455 72.145455 72.145454h176.872727c39.563636 0 72.145455-32.581818 72.145454-72.145454V74.472727c2.327273-39.563636-30.254545-72.145455-69.818181-72.145454z m37.236363 947.2c0 20.945455-16.290909 37.236364-37.236363 37.236363H72.145455c-20.945455 0-37.236364-16.290909-37.236364-37.236363V74.472727c0-20.945455 16.290909-37.236364 37.236364-37.236363h176.872727c20.945455 0 37.236364 16.290909 37.236363 37.236363v875.054546z" fill="#FF9F33" p-id="3828"></path><path d="M160.581818 795.927273c-39.563636 0-69.818182 30.254545-69.818182 69.818182s30.254545 69.818182 69.818182 69.818181 69.818182-30.254545 69.818182-69.818181c0-37.236364-30.254545-69.818182-69.818182-69.818182z m0 104.727272c-18.618182 0-34.909091-16.290909-34.909091-34.90909s16.290909-34.909091 34.909091-34.909091 34.909091 16.290909 34.909091 34.909091c2.327273 18.618182-13.963636 34.909091-34.909091 34.90909zM214.109091 95.418182H109.381818c-9.309091 0-16.290909 6.981818-16.290909 16.290909v449.163636c0 9.309091 6.981818 16.290909 16.290909 16.290909h104.727273c9.309091 0 16.290909-6.981818 16.290909-16.290909V114.036364c0-9.309091-6.981818-18.618182-16.290909-18.618182z m-16.290909 449.163636h-69.818182V130.327273h69.818182v414.254545zM861.090909 795.927273c-39.563636 0-69.818182 30.254545-69.818182 69.818182s30.254545 69.818182 69.818182 69.818181 69.818182-30.254545 69.818182-69.818181c0-37.236364-30.254545-69.818182-69.818182-69.818182z m0 104.727272c-18.618182 0-34.909091-16.290909-34.909091-34.90909s16.290909-34.909091 34.909091-34.909091 34.909091 16.290909 34.909091 34.909091c2.327273 18.618182-13.963636 34.909091-34.909091 34.90909zM914.618182 95.418182h-104.727273c-9.309091 0-16.290909 6.981818-16.290909 16.290909v449.163636c0 9.309091 6.981818 16.290909 16.290909 16.290909h104.727273c9.309091 0 16.290909-6.981818 16.290909-16.290909V114.036364c0-9.309091-6.981818-18.618182-16.290909-18.618182z m-16.290909 449.163636h-69.818182V130.327273h69.818182v414.254545zM512 779.636364c-48.872727 0-86.109091 39.563636-86.109091 86.109091 0 48.872727 39.563636 86.109091 86.109091 86.10909 48.872727 0 86.109091-39.563636 86.109091-86.10909s-37.236364-86.109091-86.109091-86.109091z m0 139.636363c-27.927273 0-51.2-23.272727-51.2-51.2 0-27.927273 23.272727-51.2 51.2-51.2s51.2 23.272727 51.2 51.2c0 27.927273-23.272727 51.2-51.2 51.2z" fill="#FF9F33" p-id="3829"></path><path d="M951.854545 2.327273h-176.872727c-39.563636 0-72.145455 32.581818-72.145454 72.145454v875.054546c0 39.563636 32.581818 72.145455 72.145454 72.145454h176.872727c39.563636 0 72.145455-32.581818 72.145455-72.145454V74.472727C1024 34.909091 991.418182 2.327273 951.854545 2.327273z m37.236364 947.2c0 20.945455-16.290909 37.236364-37.236364 37.236363h-176.872727c-20.945455 0-37.236364-16.290909-37.236363-37.236363V74.472727c0-20.945455 16.290909-37.236364 37.236363-37.236363h176.872727c20.945455 0 37.236364 16.290909 37.236364 37.236363v875.054546zM621.381818 2.327273h-221.090909c-39.563636 0-72.145455 32.581818-72.145454 72.145454v875.054546c0 39.563636 32.581818 72.145455 72.145454 72.145454h221.090909c39.563636 0 72.145455-32.581818 72.145455-72.145454V74.472727c2.327273-39.563636-32.581818-72.145455-72.145455-72.145454z m39.563637 947.2c0 20.945455-16.290909 37.236364-37.236364 37.236363h-221.090909c-20.945455 0-37.236364-16.290909-37.236364-37.236363V74.472727c0-20.945455 16.290909-37.236364 37.236364-37.236363h221.090909c20.945455 0 37.236364 16.290909 37.236364 37.236363v875.054546z" fill="#FF9F33" p-id="3830"></path><path d="M581.818182 97.745455h-139.636364c-9.309091 0-16.290909 6.981818-16.290909 16.290909v449.163636c0 9.309091 6.981818 16.290909 16.290909 16.290909h139.636364c9.309091 0 16.290909-6.981818 16.290909-16.290909V116.363636c0-9.309091-6.981818-18.618182-16.290909-18.618181z m-18.618182 449.163636h-104.727273V132.654545h104.727273v414.254546z" fill="#FF9F33" p-id="3831"></path><path d="M69.818182 619.054545c-6.981818 0-13.963636 6.981818-13.963637 13.963637v118.690909c0 6.981818 6.981818 13.963636 13.963637 13.963636s13.963636-6.981818 13.963636-13.963636v-118.690909c0-6.981818-6.981818-13.963636-13.963636-13.963637z" fill="#FCFCFF" p-id="3832"></path><path d="M69.818182 798.254545m-13.963637 0a13.963636 13.963636 0 1 0 27.927273 0 13.963636 13.963636 0 1 0-27.927273 0Z" fill="#FCFCFF" p-id="3833"></path></svg>