<?xml version="1.0" standalone="no"?><!DOCTYPE svg PUBLIC "-//W3C//DTD SVG 1.1//EN" "http://www.w3.org/Graphics/SVG/1.1/DTD/svg11.dtd"><svg class="icon" width="200px" height="200.00px" viewBox="0 0 1024 1024" version="1.1" xmlns="http://www.w3.org/2000/svg"><path fill="#ffffff" d="M972.8 0H665.6a51.2 51.2 0 0 0 0 102.4h183.6032l-219.8016 219.8016a51.2 51.2 0 0 0 72.3968 72.3968L921.6 174.7968V358.4a51.2 51.2 0 0 0 102.4 0V51.2a51.2 51.2 0 0 0-51.2-51.2zM409.6 51.2a51.2 51.2 0 0 0-51.2-51.2H51.2a51.456 51.456 0 0 0-51.2 51.2v307.2a51.2 51.2 0 1 0 102.4 0V174.7968l219.8016 219.8016a51.2 51.2 0 0 0 72.3968-72.3968L174.7968 102.4H358.4a51.2 51.2 0 0 0 51.2-51.2z m614.4 614.4a51.2 51.2 0 0 0-102.4 0v183.6032l-219.8016-219.8016a51.2 51.2 0 0 0-72.3968 72.3968L849.2032 921.6H665.6a51.2 51.2 0 0 0 0 102.4h307.2a51.456 51.456 0 0 0 51.2-51.2V665.6zM358.4 921.6H174.7968l219.8016-219.8016a51.2 51.2 0 0 0-72.3968-72.3968L102.4 849.2032V665.6a51.2 51.2 0 1 0-102.4 0v307.2a51.2 51.2 0 0 0 51.2 51.2h307.2a51.2 51.2 0 0 0 0-102.4z"  /></svg>